<?xml version="1.0" encoding="UTF-8" standalone="no"?>
<!-- Generator: Adobe Illustrator 12.0.1, SVG Export Plug-In . SVG Version: 6.00 Build 51448)  -->

<svg
   xmlns:dc="http://purl.org/dc/elements/1.1/"
   xmlns:cc="http://creativecommons.org/ns#"
   xmlns:rdf="http://www.w3.org/1999/02/22-rdf-syntax-ns#"
   xmlns:svg="http://www.w3.org/2000/svg"
   xmlns="http://www.w3.org/2000/svg"
   xmlns:sodipodi="http://sodipodi.sourceforge.net/DTD/sodipodi-0.dtd"
   xmlns:inkscape="http://www.inkscape.org/namespaces/inkscape"
   version="1.1"
   id="Ebene_1"
   width="80"
   height="70"
   viewBox="0 0 80 70"
   overflow="visible"
   enable-background="new 0 0 383.572 103.25"
   xml:space="preserve"
   sodipodi:docname="Redmine.svg"
   style="overflow:visible"
   inkscape:version="0.92.3 (2405546, 2018-03-11)"><metadata
   id="metadata45"><rdf:RDF><cc:Work
       rdf:about=""><dc:format>image/svg+xml</dc:format><dc:type
         rdf:resource="http://purl.org/dc/dcmitype/StillImage" /><dc:title></dc:title><cc:license
         rdf:resource="http://creativecommons.org/licenses/by-sa/4.0/" /></cc:Work><cc:License
       rdf:about="http://creativecommons.org/licenses/by-sa/4.0/"><cc:permits
         rdf:resource="http://creativecommons.org/ns#Reproduction" /><cc:permits
         rdf:resource="http://creativecommons.org/ns#Distribution" /><cc:requires
         rdf:resource="http://creativecommons.org/ns#Notice" /><cc:requires
         rdf:resource="http://creativecommons.org/ns#Attribution" /><cc:permits
         rdf:resource="http://creativecommons.org/ns#DerivativeWorks" /><cc:requires
         rdf:resource="http://creativecommons.org/ns#ShareAlike" /></cc:License></rdf:RDF></metadata><defs
   id="defs43" /><sodipodi:namedview
   pagecolor="#ffffff"
   bordercolor="#666666"
   borderopacity="1"
   objecttolerance="10"
   gridtolerance="10"
   guidetolerance="10"
   inkscape:pageopacity="0"
   inkscape:pageshadow="2"
   inkscape:window-width="1920"
   inkscape:window-height="1017"
   id="namedview41"
   showgrid="false"
   inkscape:zoom="1.5827927"
   inkscape:cx="-80.762124"
   inkscape:cy="195.44558"
   inkscape:window-x="-8"
   inkscape:window-y="-8"
   inkscape:window-maximized="1"
   inkscape:current-layer="Ebene_1" />
<polygon
   points="18,55.149 2.399,51.55 0,69.55 16.8,69.55 "
   id="polygon4"
   style="clip-rule:evenodd;fill:#4d4d4d;fill-rule:evenodd"
   transform="translate(1.2899104,-8.4192246)" />
<polygon
   points="21.601,40.149 9,33.55 3,49.149 18,52.75 "
   id="polygon6"
   style="clip-rule:evenodd;fill:#4d4d4d;fill-rule:evenodd"
   transform="translate(1.2899104,-8.4192246)" />
<polygon
   points="31.8,31.149 22.8,20.949 10.2,31.149 22.2,37.75 "
   id="polygon8"
   style="clip-rule:evenodd;fill:#4d4d4d;fill-rule:evenodd"
   transform="translate(1.2899104,-8.4192246)" />
<polygon
   points="59.399,55.149 75,51.55 77.399,69.55 60.601,69.55 "
   id="polygon10"
   style="clip-rule:evenodd;fill:#4d4d4d;fill-rule:evenodd"
   transform="translate(1.2899104,-8.4192246)" />
<polygon
   points="55.8,40.149 68.399,33.55 74.399,49.149 59.399,52.75 "
   id="polygon12"
   style="clip-rule:evenodd;fill:#4d4d4d;fill-rule:evenodd"
   transform="translate(1.2899104,-8.4192246)" />
<polygon
   points="45.601,31.149 54.601,20.949 67.2,31.149 55.2,37.75 "
   id="polygon14"
   style="clip-rule:evenodd;fill:#4d4d4d;fill-rule:evenodd"
   transform="translate(1.2899104,-8.4192246)" />
<polygon
   points="43.2,29.949 51,19.149 43.2,16.75 34.589,16.75 25.8,19.149 34.8,29.949 "
   id="polygon16"
   style="clip-rule:evenodd;fill:#4d4d4d;fill-rule:evenodd"
   transform="translate(1.2899104,-8.4192246)" />
<polygon
   points="18,55.149 2.399,51.55 0,69.55 16.8,69.55 "
   id="polygon18"
   style="clip-rule:evenodd;fill:#9c0000;fill-rule:evenodd"
   transform="translate(1.2899104,-8.4192246)" />
<polygon
   points="21.601,40.149 9,33.55 3,49.149 18,52.75 "
   id="polygon20"
   style="clip-rule:evenodd;fill:#b50808;fill-rule:evenodd"
   transform="translate(1.2899104,-8.4192246)" />
<polygon
   points="31.8,31.149 22.8,20.949 10.2,31.149 22.2,37.75 "
   id="polygon22"
   style="clip-rule:evenodd;fill:#c61818;fill-rule:evenodd"
   transform="translate(1.2899104,-8.4192246)" />
<polygon
   points="59.399,55.149 75,51.55 77.399,69.55 60.601,69.55 "
   id="polygon24"
   style="clip-rule:evenodd;fill:#9c0000;fill-rule:evenodd"
   transform="translate(1.2899104,-8.4192246)" />
<polygon
   points="55.8,40.149 68.399,33.55 74.399,49.149 59.399,52.75 "
   id="polygon26"
   style="clip-rule:evenodd;fill:#b50808;fill-rule:evenodd"
   transform="translate(1.2899104,-8.4192246)" />
<polygon
   points="45.601,31.149 54.601,20.949 67.2,31.149 55.2,37.75 "
   id="polygon28"
   style="clip-rule:evenodd;fill:#c61818;fill-rule:evenodd"
   transform="translate(1.2899104,-8.4192246)" />
<polygon
   points="43.2,29.949 51,19.149 43.2,16.75 34.589,16.75 25.8,19.149 34.8,29.949 "
   id="polygon30"
   style="clip-rule:evenodd;fill:#ce3129;fill-rule:evenodd"
   transform="translate(1.2899104,-8.4192246)" />


</svg>